<mxfile host="app.diagrams.net" modified="2021-06-21T08:19:07.018Z" agent="5.0 (Windows NT 10.0; WOW64) AppleWebKit/537.36 (KHTML, like Gecko) Chrome/70.0.3538.25 Safari/537.36 Core/1.70.3870.400 QQBrowser/10.8.4405.400" etag="YSsufiGTwJxRgdyAoWQ1" version="14.8.0" type="github">
  <diagram id="w5Mikg7MOy_nFa_clsQ9" name="第 1 页">
    <mxGraphModel dx="744" dy="401" grid="1" gridSize="10" guides="1" tooltips="1" connect="1" arrows="1" fold="1" page="1" pageScale="1" pageWidth="827" pageHeight="1169" math="0" shadow="0">
      <root>
        <mxCell id="0" />
        <mxCell id="1" parent="0" />
        <mxCell id="1ZQHApdugHxBVV2MQne1-1" value="Android视频播放器" style="rounded=0;whiteSpace=wrap;html=1;" vertex="1" parent="1">
          <mxGeometry x="150" y="260" width="90" height="50" as="geometry" />
        </mxCell>
      </root>
    </mxGraphModel>
  </diagram>
</mxfile>
